<?xml version="1.0" encoding="UTF-8"?>
<svg id="Calque_1" xmlns="http://www.w3.org/2000/svg" version="1.1" viewBox="0 0 800 800">
  <!-- Generator: Adobe Illustrator 29.1.0, SVG Export Plug-In . SVG Version: 2.1.0 Build 142)  -->
  <defs>
    <style>
      .st0, .st1 {
        fill: #fff;
      }

      .st1 {
        fill-rule: evenodd;
      }
    </style>
  </defs>
  <path class="st0" d="M531.1,338.1v178.6h-45.5v-178.6h45.5Z"/>
  <path class="st0" d="M483,288.2c0-13.9,10.3-24.6,25.3-24.6s24.9,10.6,25.3,24.6c0,13.6-9.9,24.2-25.7,24.2s-24.9-10.6-24.9-24.2Z"/>
  <path class="st1" d="M421.1,516.7l-22.4-70h-78.5l-21.3,70h-46.6l79.2-247.1h57.6l80.3,247.1h-48.4ZM346.7,351.7l-19.1,60.9h63.4l-19.4-60.9c-3.9-12.2-7.2-25.5-10.3-37.8-.7-2.9-1.4-5.7-2.1-8.4h-.7c-1.3,4.9-2.5,10.1-3.8,15.5-2.5,10.3-5,21.1-7.9,30.7Z"/>
  <path class="st1" d="M575.3,94.4c-115.6-12.9-235-12.9-350.6,0-67.1,7.5-121.2,60.3-129.1,127.7-13.8,118.1-13.8,237.5,0,355.6,7.9,67.4,62,120.3,129.1,127.7,115.6,12.9,235,12.9,350.6,0,67.1-7.5,121.2-60.3,129.1-127.7,13.8-118.1,13.8-237.5,0-355.6-7.9-67.4-62-120.3-129.1-127.7ZM230.3,144.1c111.9-12.5,227.6-12.5,339.4,0,44.3,5,79.9,39.9,85,83.9,13.4,114.3,13.4,229.7,0,344-5.1,43.9-40.7,78.9-85,83.9-111.9,12.5-227.6,12.5-339.4,0-44.3-5-79.9-39.9-85-83.9-13.4-114.3-13.4-229.7,0-344,5.1-43.9,40.7-78.9,85-83.9Z"/>
</svg>