<?xml version="1.0" encoding="UTF-8"?>
<svg id="Calque_1" xmlns="http://www.w3.org/2000/svg" version="1.1" viewBox="0 0 800 800">
  <!-- Generator: Adobe Illustrator 29.1.0, SVG Export Plug-In . SVG Version: 2.1.0 Build 142)  -->
  <defs>
    <style>
      .st0, .st1 {
        fill: #fff;
      }

      .st1 {
        fill-rule: evenodd;
      }
    </style>
  </defs>
  <path class="st0" d="M424.3,516.7h-146.7v-247.1h45.1v209.4h101.6v37.8Z"/>
  <path class="st0" d="M487,516.7h-45.1v-121c0-24.2-.4-41.4-1.5-57.6h39.2l1.5,34.1h1.5c8.8-25.3,29.7-38.1,48.8-38.1s7,.4,10.6,1.1v42.5c-3.7-.7-7.7-1.5-13.2-1.5-21.6,0-36.3,13.9-40.3,34.1-.7,4-1.5,8.8-1.5,13.9v92.4Z"/>
  <path class="st1" d="M575.3,94.4c-115.6-12.9-235-12.9-350.6,0-67.1,7.5-121.2,60.3-129.1,127.7-13.8,118.1-13.8,237.5,0,355.6,7.9,67.4,62,120.3,129.1,127.7,115.6,12.9,235,12.9,350.6,0,67.1-7.5,121.2-60.3,129.1-127.7,13.8-118.1,13.8-237.5,0-355.6-7.9-67.4-62-120.3-129.1-127.7ZM230.3,144.1c111.9-12.5,227.6-12.5,339.4,0,44.3,5,79.9,39.9,85,83.9,13.4,114.3,13.4,229.7,0,344-5.1,43.9-40.7,78.9-85,83.9-111.9,12.5-227.6,12.5-339.4,0-44.3-5-79.9-39.9-85-83.9-13.4-114.3-13.4-229.7,0-344,5.1-43.9,40.7-78.9,85-83.9Z"/>
</svg>