<?xml version="1.0" encoding="UTF-8"?>
<svg id="Calque_1" xmlns="http://www.w3.org/2000/svg" version="1.1" viewBox="0 0 800 800">
  <!-- Generator: Adobe Illustrator 29.1.0, SVG Export Plug-In . SVG Version: 2.1.0 Build 142)  -->
  <defs>
    <style>
      .st0, .st1 {
        fill: #fff;
      }

      .st1 {
        fill-rule: evenodd;
      }
    </style>
  </defs>
  <path class="st1" d="M303.2,516.7h-44.7v-243.8c16.1-2.9,38.5-5.1,68.9-5.1s57.2,7,73,20.2c14.7,12.1,24.2,31.5,24.2,54.6s-7.3,42.9-21.3,56.1c-18,18-46.2,26.4-78.1,26.4s-16.1-.4-22-1.5v93.1ZM329.2,302.2c-12.5,0-21.3,1.1-26,2.2v83.6c5.5,1.5,12.8,1.8,22,1.8,33.7,0,54.3-16.5,54.3-45.5s-19.1-42.2-50.2-42.2Z"/>
  <path class="st0" d="M482.2,520.7c-21.6,0-41.1-5.5-54.3-12.8l8.8-32.6c10.3,6.2,29.7,12.8,45.8,12.8s28.6-8.1,28.6-19.8-7.3-18.3-29.3-26c-34.8-12.1-49.5-31.2-49.1-52.1,0-31.5,26-56.1,67.5-56.1s37,5.1,47.3,10.6l-8.8,31.9c-7.7-4.4-22-10.3-37.8-10.3s-24.9,7.7-24.9,18.7,8.4,16.9,31.2,24.9c32.3,11.7,47.3,28.2,47.7,54.6,0,32.3-25.3,56.1-72.6,56.1Z"/>
  <path class="st1" d="M575.3,94.4c-115.6-12.9-235-12.9-350.5,0-67.1,7.5-121.2,60.3-129.1,127.7-13.8,118.1-13.8,237.5,0,355.6,7.9,67.4,62,120.3,129.1,127.7,115.6,12.9,235,12.9,350.5,0,67.1-7.5,121.2-60.3,129.1-127.7,13.8-118.1,13.8-237.5,0-355.6-7.9-67.4-62-120.3-129.1-127.7ZM230.3,144.1c111.9-12.5,227.6-12.5,339.4,0,44.3,5,79.9,39.9,85,83.9,13.4,114.3,13.4,229.7,0,344-5.1,43.9-40.7,78.9-85,83.9-111.9,12.5-227.6,12.5-339.4,0-44.3-5-79.9-39.9-85-83.9-13.4-114.3-13.4-229.7,0-344,5.1-43.9,40.7-78.9,85-83.9Z"/>
</svg>